G75*
%MOIN*%
%OFA0B0*%
%FSLAX25Y25*%
%IPPOS*%
%LPD*%
%AMOC8*
5,1,8,0,0,1.08239X$1,22.5*
%
%ADD10C,0.06000*%
%ADD11C,0.07400*%
%ADD12C,0.03200*%
D10*
X0091800Y0213000D02*
X0091800Y0219000D01*
X0099700Y0219000D02*
X0099700Y0213000D01*
X0107600Y0213000D02*
X0107600Y0219000D01*
X0115500Y0219000D02*
X0115500Y0213000D01*
X0123400Y0213000D02*
X0123400Y0219000D01*
X0131300Y0219000D02*
X0131300Y0213000D01*
X0139200Y0213000D02*
X0139200Y0219000D01*
X0147100Y0219000D02*
X0147100Y0213000D01*
X0159600Y0223900D02*
X0165600Y0223900D01*
X0165600Y0231800D02*
X0159600Y0231800D01*
X0159600Y0239700D02*
X0165600Y0239700D01*
X0165600Y0247600D02*
X0159600Y0247600D01*
X0159600Y0255500D02*
X0165600Y0255500D01*
X0165600Y0263400D02*
X0159600Y0263400D01*
X0159600Y0271300D02*
X0165600Y0271300D01*
X0165600Y0279200D02*
X0159600Y0279200D01*
X0159600Y0287100D02*
X0165600Y0287100D01*
X0165600Y0295000D02*
X0159600Y0295000D01*
X0159600Y0302900D02*
X0165600Y0302900D01*
X0165600Y0310800D02*
X0159600Y0310800D01*
X0159600Y0318700D02*
X0165600Y0318700D01*
X0165600Y0326600D02*
X0159600Y0326600D01*
X0159600Y0334500D02*
X0165600Y0334500D01*
X0165600Y0342400D02*
X0159600Y0342400D01*
X0079000Y0318700D02*
X0073000Y0318700D01*
X0073000Y0310800D02*
X0079000Y0310800D01*
X0079000Y0302900D02*
X0073000Y0302900D01*
X0073000Y0295000D02*
X0079000Y0295000D01*
X0079000Y0287100D02*
X0073000Y0287100D01*
X0073000Y0279200D02*
X0079000Y0279200D01*
X0079000Y0271300D02*
X0073000Y0271300D01*
X0073000Y0263400D02*
X0079000Y0263400D01*
X0079000Y0255500D02*
X0073000Y0255500D01*
X0073000Y0247600D02*
X0079000Y0247600D01*
X0079000Y0239700D02*
X0073000Y0239700D01*
X0073000Y0231800D02*
X0079000Y0231800D01*
X0079000Y0223900D02*
X0073000Y0223900D01*
D11*
X0026000Y0246000D03*
X0026000Y0256000D03*
X0026000Y0266000D03*
X0026000Y0276000D03*
X0026000Y0286000D03*
X0026000Y0296000D03*
X0026000Y0306000D03*
X0026000Y0316000D03*
X0226000Y0316000D03*
X0226000Y0306000D03*
X0226000Y0296000D03*
X0226000Y0286000D03*
X0226000Y0276000D03*
X0226000Y0266000D03*
X0226000Y0256000D03*
X0226000Y0246000D03*
X0226000Y0236000D03*
X0226000Y0226000D03*
D12*
X0251000Y0196000D02*
X0011000Y0196000D01*
X0011000Y0371000D01*
X0251000Y0371000D01*
X0251000Y0196000D01*
X0251000Y0196109D02*
X0011000Y0196109D01*
X0011000Y0199308D02*
X0251000Y0199308D01*
X0251000Y0202506D02*
X0011000Y0202506D01*
X0011000Y0205705D02*
X0251000Y0205705D01*
X0251000Y0208903D02*
X0152337Y0208903D01*
X0152695Y0209261D02*
X0153700Y0211687D01*
X0153700Y0220313D01*
X0152695Y0222739D01*
X0150839Y0224595D01*
X0148413Y0225600D01*
X0145787Y0225600D01*
X0143361Y0224595D01*
X0143150Y0224384D01*
X0142939Y0224595D01*
X0140513Y0225600D01*
X0137887Y0225600D01*
X0135461Y0224595D01*
X0135250Y0224384D01*
X0135039Y0224595D01*
X0132613Y0225600D01*
X0129987Y0225600D01*
X0127561Y0224595D01*
X0127350Y0224384D01*
X0127139Y0224595D01*
X0124713Y0225600D01*
X0122087Y0225600D01*
X0119661Y0224595D01*
X0119450Y0224384D01*
X0119239Y0224595D01*
X0116813Y0225600D01*
X0114187Y0225600D01*
X0111761Y0224595D01*
X0111550Y0224384D01*
X0111339Y0224595D01*
X0108913Y0225600D01*
X0106287Y0225600D01*
X0103861Y0224595D01*
X0103650Y0224384D01*
X0103439Y0224595D01*
X0101013Y0225600D01*
X0098387Y0225600D01*
X0095961Y0224595D01*
X0095750Y0224384D01*
X0095539Y0224595D01*
X0093113Y0225600D01*
X0090487Y0225600D01*
X0088061Y0224595D01*
X0086205Y0222739D01*
X0085200Y0220313D01*
X0085200Y0211687D01*
X0086205Y0209261D01*
X0088061Y0207405D01*
X0090487Y0206400D01*
X0093113Y0206400D01*
X0095539Y0207405D01*
X0095750Y0207616D01*
X0095961Y0207405D01*
X0098387Y0206400D01*
X0101013Y0206400D01*
X0103439Y0207405D01*
X0103650Y0207616D01*
X0103861Y0207405D01*
X0106287Y0206400D01*
X0108913Y0206400D01*
X0111339Y0207405D01*
X0111550Y0207616D01*
X0111761Y0207405D01*
X0114187Y0206400D01*
X0116813Y0206400D01*
X0119239Y0207405D01*
X0119450Y0207616D01*
X0119661Y0207405D01*
X0122087Y0206400D01*
X0124713Y0206400D01*
X0127139Y0207405D01*
X0127350Y0207616D01*
X0127561Y0207405D01*
X0129987Y0206400D01*
X0132613Y0206400D01*
X0135039Y0207405D01*
X0135250Y0207616D01*
X0135461Y0207405D01*
X0137887Y0206400D01*
X0140513Y0206400D01*
X0142939Y0207405D01*
X0143150Y0207616D01*
X0143361Y0207405D01*
X0145787Y0206400D01*
X0148413Y0206400D01*
X0150839Y0207405D01*
X0152695Y0209261D01*
X0153700Y0212102D02*
X0251000Y0212102D01*
X0251000Y0215300D02*
X0153700Y0215300D01*
X0153700Y0218499D02*
X0155667Y0218499D01*
X0155861Y0218305D02*
X0158287Y0217300D01*
X0166913Y0217300D01*
X0169339Y0218305D01*
X0171195Y0220161D01*
X0172200Y0222587D01*
X0172200Y0225213D01*
X0171195Y0227639D01*
X0170984Y0227850D01*
X0171195Y0228061D01*
X0172200Y0230487D01*
X0172200Y0233113D01*
X0171625Y0234500D01*
X0175146Y0234500D01*
X0181592Y0228054D01*
X0183054Y0226592D01*
X0184966Y0225800D01*
X0198846Y0225800D01*
X0201592Y0223054D01*
X0203054Y0221592D01*
X0204966Y0220800D01*
X0220876Y0220800D01*
X0221865Y0219811D01*
X0224548Y0218700D01*
X0227452Y0218700D01*
X0230135Y0219811D01*
X0232189Y0221865D01*
X0233300Y0224548D01*
X0233300Y0227452D01*
X0232189Y0230135D01*
X0231324Y0231000D01*
X0232189Y0231865D01*
X0233300Y0234548D01*
X0233300Y0237452D01*
X0232189Y0240135D01*
X0231324Y0241000D01*
X0232189Y0241865D01*
X0233300Y0244548D01*
X0233300Y0247452D01*
X0232189Y0250135D01*
X0231324Y0251000D01*
X0232189Y0251865D01*
X0233300Y0254548D01*
X0233300Y0257452D01*
X0232189Y0260135D01*
X0231324Y0261000D01*
X0232189Y0261865D01*
X0233300Y0264548D01*
X0233300Y0267452D01*
X0232189Y0270135D01*
X0231324Y0271000D01*
X0232189Y0271865D01*
X0233300Y0274548D01*
X0233300Y0277452D01*
X0232189Y0280135D01*
X0231324Y0281000D01*
X0232189Y0281865D01*
X0233300Y0284548D01*
X0233300Y0287452D01*
X0232189Y0290135D01*
X0231324Y0291000D01*
X0232189Y0291865D01*
X0233300Y0294548D01*
X0233300Y0297452D01*
X0232189Y0300135D01*
X0231324Y0301000D01*
X0232189Y0301865D01*
X0233300Y0304548D01*
X0233300Y0307452D01*
X0232189Y0310135D01*
X0231324Y0311000D01*
X0232189Y0311865D01*
X0233300Y0314548D01*
X0233300Y0317452D01*
X0232189Y0320135D01*
X0230135Y0322189D01*
X0227452Y0323300D01*
X0224548Y0323300D01*
X0221865Y0322189D01*
X0220876Y0321200D01*
X0204966Y0321200D01*
X0203054Y0320408D01*
X0201592Y0318946D01*
X0198846Y0316200D01*
X0189966Y0316200D01*
X0189483Y0316000D01*
X0171625Y0316000D01*
X0172200Y0317387D01*
X0172200Y0320013D01*
X0171195Y0322439D01*
X0170984Y0322650D01*
X0171195Y0322861D01*
X0172200Y0325287D01*
X0172200Y0327913D01*
X0171195Y0330339D01*
X0170984Y0330550D01*
X0171195Y0330761D01*
X0172200Y0333187D01*
X0172200Y0335813D01*
X0171195Y0338239D01*
X0170984Y0338450D01*
X0171195Y0338661D01*
X0172200Y0341087D01*
X0172200Y0343713D01*
X0171195Y0346139D01*
X0169339Y0347995D01*
X0166913Y0349000D01*
X0158287Y0349000D01*
X0155861Y0347995D01*
X0154005Y0346139D01*
X0153000Y0343713D01*
X0153000Y0341087D01*
X0154005Y0338661D01*
X0154216Y0338450D01*
X0154005Y0338239D01*
X0153000Y0335813D01*
X0153000Y0333187D01*
X0154005Y0330761D01*
X0154216Y0330550D01*
X0154005Y0330339D01*
X0153000Y0327913D01*
X0153000Y0325287D01*
X0154005Y0322861D01*
X0154216Y0322650D01*
X0154005Y0322439D01*
X0153000Y0320013D01*
X0153000Y0317387D01*
X0154005Y0314961D01*
X0154216Y0314750D01*
X0154005Y0314539D01*
X0153000Y0312113D01*
X0153000Y0309487D01*
X0154005Y0307061D01*
X0154216Y0306850D01*
X0154005Y0306639D01*
X0153000Y0304213D01*
X0153000Y0301587D01*
X0154005Y0299161D01*
X0154216Y0298950D01*
X0154005Y0298739D01*
X0153000Y0296313D01*
X0153000Y0293687D01*
X0154005Y0291261D01*
X0154216Y0291050D01*
X0154005Y0290839D01*
X0153000Y0288413D01*
X0153000Y0285787D01*
X0154005Y0283361D01*
X0154216Y0283150D01*
X0154005Y0282939D01*
X0153000Y0280513D01*
X0153000Y0277887D01*
X0154005Y0275461D01*
X0154216Y0275250D01*
X0154005Y0275039D01*
X0153000Y0272613D01*
X0153000Y0269987D01*
X0154005Y0267561D01*
X0154216Y0267350D01*
X0154005Y0267139D01*
X0153000Y0264713D01*
X0153000Y0262087D01*
X0154005Y0259661D01*
X0154216Y0259450D01*
X0154005Y0259239D01*
X0153000Y0256813D01*
X0153000Y0254187D01*
X0154005Y0251761D01*
X0154216Y0251550D01*
X0154005Y0251339D01*
X0153000Y0248913D01*
X0153000Y0246287D01*
X0154005Y0243861D01*
X0154216Y0243650D01*
X0154005Y0243439D01*
X0153000Y0241013D01*
X0153000Y0238387D01*
X0154005Y0235961D01*
X0154216Y0235750D01*
X0154005Y0235539D01*
X0153000Y0233113D01*
X0153000Y0230487D01*
X0154005Y0228061D01*
X0154216Y0227850D01*
X0154005Y0227639D01*
X0153000Y0225213D01*
X0153000Y0222587D01*
X0154005Y0220161D01*
X0155861Y0218305D01*
X0153369Y0221697D02*
X0153127Y0221697D01*
X0153000Y0224896D02*
X0150113Y0224896D01*
X0153991Y0228094D02*
X0084609Y0228094D01*
X0084595Y0228061D02*
X0085600Y0230487D01*
X0085600Y0233113D01*
X0084595Y0235539D01*
X0084384Y0235750D01*
X0084595Y0235961D01*
X0085600Y0238387D01*
X0085600Y0241013D01*
X0084595Y0243439D01*
X0084384Y0243650D01*
X0084595Y0243861D01*
X0085600Y0246287D01*
X0085600Y0248913D01*
X0084595Y0251339D01*
X0084384Y0251550D01*
X0084595Y0251761D01*
X0085600Y0254187D01*
X0085600Y0256813D01*
X0084595Y0259239D01*
X0084384Y0259450D01*
X0084595Y0259661D01*
X0085600Y0262087D01*
X0085600Y0264713D01*
X0084595Y0267139D01*
X0084384Y0267350D01*
X0084595Y0267561D01*
X0085600Y0269987D01*
X0085600Y0272613D01*
X0084595Y0275039D01*
X0084384Y0275250D01*
X0084595Y0275461D01*
X0085600Y0277887D01*
X0085600Y0280513D01*
X0084595Y0282939D01*
X0084384Y0283150D01*
X0084595Y0283361D01*
X0085600Y0285787D01*
X0085600Y0288413D01*
X0084595Y0290839D01*
X0084384Y0291050D01*
X0084595Y0291261D01*
X0085600Y0293687D01*
X0085600Y0296313D01*
X0084595Y0298739D01*
X0084384Y0298950D01*
X0084595Y0299161D01*
X0085600Y0301587D01*
X0085600Y0304213D01*
X0084595Y0306639D01*
X0084384Y0306850D01*
X0084595Y0307061D01*
X0085600Y0309487D01*
X0085600Y0312113D01*
X0084595Y0314539D01*
X0084384Y0314750D01*
X0084595Y0314961D01*
X0085600Y0317387D01*
X0085600Y0320013D01*
X0084595Y0322439D01*
X0082739Y0324295D01*
X0080313Y0325300D01*
X0071687Y0325300D01*
X0069261Y0324295D01*
X0067405Y0322439D01*
X0066400Y0320013D01*
X0066400Y0317387D01*
X0066892Y0316200D01*
X0063154Y0316200D01*
X0058946Y0320408D01*
X0057034Y0321200D01*
X0031124Y0321200D01*
X0030135Y0322189D01*
X0027452Y0323300D01*
X0024548Y0323300D01*
X0021865Y0322189D01*
X0019811Y0320135D01*
X0018700Y0317452D01*
X0018700Y0314548D01*
X0019811Y0311865D01*
X0020676Y0311000D01*
X0019811Y0310135D01*
X0018700Y0307452D01*
X0018700Y0304548D01*
X0019811Y0301865D01*
X0020676Y0301000D01*
X0019811Y0300135D01*
X0018700Y0297452D01*
X0018700Y0294548D01*
X0019811Y0291865D01*
X0020676Y0291000D01*
X0019811Y0290135D01*
X0018700Y0287452D01*
X0018700Y0284548D01*
X0019811Y0281865D01*
X0020676Y0281000D01*
X0019811Y0280135D01*
X0018700Y0277452D01*
X0018700Y0274548D01*
X0019811Y0271865D01*
X0020676Y0271000D01*
X0019811Y0270135D01*
X0018700Y0267452D01*
X0018700Y0264548D01*
X0019811Y0261865D01*
X0020676Y0261000D01*
X0019811Y0260135D01*
X0018700Y0257452D01*
X0018700Y0254548D01*
X0019811Y0251865D01*
X0021383Y0250293D01*
X0021195Y0250104D01*
X0020612Y0249302D01*
X0020162Y0248418D01*
X0019855Y0247475D01*
X0019700Y0246496D01*
X0019700Y0246000D01*
X0026000Y0246000D01*
X0032300Y0246000D01*
X0032300Y0246496D01*
X0032145Y0247475D01*
X0031838Y0248418D01*
X0031388Y0249302D01*
X0030805Y0250104D01*
X0030617Y0250293D01*
X0031124Y0250800D01*
X0044023Y0250800D01*
X0051431Y0244215D01*
X0052054Y0243592D01*
X0052200Y0243531D01*
X0052318Y0243426D01*
X0053151Y0243137D01*
X0053966Y0242800D01*
X0054124Y0242800D01*
X0054273Y0242748D01*
X0055153Y0242800D01*
X0066786Y0242800D01*
X0067134Y0242785D01*
X0066400Y0241013D01*
X0066400Y0238387D01*
X0067405Y0235961D01*
X0067616Y0235750D01*
X0067405Y0235539D01*
X0066400Y0233113D01*
X0066400Y0230487D01*
X0067405Y0228061D01*
X0068387Y0227079D01*
X0068210Y0226835D01*
X0067810Y0226050D01*
X0067538Y0225211D01*
X0067400Y0224341D01*
X0067400Y0223900D01*
X0076000Y0223900D01*
X0084600Y0223900D01*
X0084600Y0224341D01*
X0084462Y0225211D01*
X0084190Y0226050D01*
X0083790Y0226835D01*
X0083613Y0227079D01*
X0084595Y0228061D01*
X0084512Y0224896D02*
X0088787Y0224896D01*
X0084600Y0223900D02*
X0076000Y0223900D01*
X0076000Y0223900D01*
X0076000Y0218300D01*
X0079441Y0218300D01*
X0080311Y0218438D01*
X0081150Y0218710D01*
X0081935Y0219110D01*
X0082648Y0219629D01*
X0083271Y0220252D01*
X0083790Y0220965D01*
X0084190Y0221750D01*
X0084462Y0222589D01*
X0084600Y0223459D01*
X0084600Y0223900D01*
X0084163Y0221697D02*
X0085773Y0221697D01*
X0085200Y0218499D02*
X0080499Y0218499D01*
X0076000Y0218499D02*
X0076000Y0218499D01*
X0076000Y0218300D02*
X0076000Y0223900D01*
X0076000Y0223900D01*
X0076000Y0223900D01*
X0067400Y0223900D01*
X0067400Y0223459D01*
X0067538Y0222589D01*
X0067810Y0221750D01*
X0068210Y0220965D01*
X0068729Y0220252D01*
X0069352Y0219629D01*
X0070065Y0219110D01*
X0070850Y0218710D01*
X0071689Y0218438D01*
X0072559Y0218300D01*
X0076000Y0218300D01*
X0076000Y0221697D02*
X0076000Y0221697D01*
X0071501Y0218499D02*
X0011000Y0218499D01*
X0011000Y0221697D02*
X0067837Y0221697D01*
X0067488Y0224896D02*
X0011000Y0224896D01*
X0011000Y0228094D02*
X0067391Y0228094D01*
X0066400Y0231293D02*
X0011000Y0231293D01*
X0011000Y0234491D02*
X0066971Y0234491D01*
X0066689Y0237690D02*
X0011000Y0237690D01*
X0011000Y0240888D02*
X0022317Y0240888D01*
X0022698Y0240612D02*
X0023582Y0240162D01*
X0024525Y0239855D01*
X0025504Y0239700D01*
X0026000Y0239700D01*
X0026496Y0239700D01*
X0027475Y0239855D01*
X0028418Y0240162D01*
X0029302Y0240612D01*
X0030104Y0241195D01*
X0030805Y0241896D01*
X0031388Y0242698D01*
X0031838Y0243582D01*
X0032145Y0244525D01*
X0032300Y0245504D01*
X0032300Y0246000D01*
X0026000Y0246000D01*
X0026000Y0246000D01*
X0026000Y0239700D01*
X0026000Y0246000D01*
X0026000Y0246000D01*
X0026000Y0246000D01*
X0019700Y0246000D01*
X0019700Y0245504D01*
X0019855Y0244525D01*
X0020162Y0243582D01*
X0020612Y0242698D01*
X0021195Y0241896D01*
X0021896Y0241195D01*
X0022698Y0240612D01*
X0026000Y0240888D02*
X0026000Y0240888D01*
X0026000Y0244087D02*
X0026000Y0244087D01*
X0029683Y0240888D02*
X0066400Y0240888D01*
X0066900Y0248000D02*
X0055000Y0248000D01*
X0046000Y0256000D01*
X0026000Y0256000D01*
X0030808Y0250484D02*
X0044379Y0250484D01*
X0047977Y0247285D02*
X0032175Y0247285D01*
X0032003Y0244087D02*
X0051559Y0244087D01*
X0066900Y0248000D02*
X0076000Y0247600D01*
X0084689Y0244087D02*
X0153911Y0244087D01*
X0153000Y0247285D02*
X0085600Y0247285D01*
X0084949Y0250484D02*
X0153651Y0250484D01*
X0153209Y0253682D02*
X0085391Y0253682D01*
X0085572Y0256881D02*
X0153028Y0256881D01*
X0153832Y0260079D02*
X0084768Y0260079D01*
X0085600Y0263278D02*
X0153000Y0263278D01*
X0153731Y0266476D02*
X0084869Y0266476D01*
X0085471Y0269675D02*
X0153129Y0269675D01*
X0153108Y0272873D02*
X0085492Y0272873D01*
X0084848Y0276072D02*
X0153752Y0276072D01*
X0153000Y0279270D02*
X0085600Y0279270D01*
X0084790Y0282469D02*
X0153810Y0282469D01*
X0153050Y0285668D02*
X0085550Y0285668D01*
X0085412Y0288866D02*
X0153188Y0288866D01*
X0153672Y0292065D02*
X0084928Y0292065D01*
X0085600Y0295263D02*
X0153000Y0295263D01*
X0153890Y0298462D02*
X0084710Y0298462D01*
X0085600Y0301660D02*
X0153000Y0301660D01*
X0153267Y0304859D02*
X0085333Y0304859D01*
X0085008Y0308057D02*
X0153592Y0308057D01*
X0153000Y0311256D02*
X0085600Y0311256D01*
X0084630Y0314454D02*
X0153970Y0314454D01*
X0153000Y0317653D02*
X0085600Y0317653D01*
X0085253Y0320851D02*
X0153347Y0320851D01*
X0153513Y0324050D02*
X0082984Y0324050D01*
X0069016Y0324050D02*
X0011000Y0324050D01*
X0011000Y0327248D02*
X0153000Y0327248D01*
X0154113Y0330447D02*
X0011000Y0330447D01*
X0011000Y0333645D02*
X0153000Y0333645D01*
X0153427Y0336844D02*
X0011000Y0336844D01*
X0011000Y0340042D02*
X0153433Y0340042D01*
X0153000Y0343241D02*
X0011000Y0343241D01*
X0011000Y0346439D02*
X0154305Y0346439D01*
X0170895Y0346439D02*
X0251000Y0346439D01*
X0251000Y0343241D02*
X0172200Y0343241D01*
X0171767Y0340042D02*
X0251000Y0340042D01*
X0251000Y0336844D02*
X0171773Y0336844D01*
X0172200Y0333645D02*
X0251000Y0333645D01*
X0251000Y0330447D02*
X0171087Y0330447D01*
X0172200Y0327248D02*
X0251000Y0327248D01*
X0251000Y0324050D02*
X0171687Y0324050D01*
X0171853Y0320851D02*
X0204123Y0320851D01*
X0200299Y0317653D02*
X0172200Y0317653D01*
X0162600Y0310800D02*
X0190800Y0310800D01*
X0191000Y0311000D01*
X0201000Y0311000D01*
X0206000Y0316000D01*
X0226000Y0316000D01*
X0231579Y0311256D02*
X0251000Y0311256D01*
X0251000Y0314454D02*
X0233261Y0314454D01*
X0233217Y0317653D02*
X0251000Y0317653D01*
X0251000Y0320851D02*
X0231473Y0320851D01*
X0233049Y0308057D02*
X0251000Y0308057D01*
X0251000Y0304859D02*
X0233300Y0304859D01*
X0231984Y0301660D02*
X0251000Y0301660D01*
X0251000Y0298462D02*
X0232882Y0298462D01*
X0233300Y0295263D02*
X0251000Y0295263D01*
X0251000Y0292065D02*
X0232271Y0292065D01*
X0232714Y0288866D02*
X0251000Y0288866D01*
X0251000Y0285668D02*
X0233300Y0285668D01*
X0232439Y0282469D02*
X0251000Y0282469D01*
X0251000Y0279270D02*
X0232547Y0279270D01*
X0233300Y0276072D02*
X0251000Y0276072D01*
X0251000Y0272873D02*
X0232606Y0272873D01*
X0232379Y0269675D02*
X0251000Y0269675D01*
X0251000Y0266476D02*
X0233300Y0266476D01*
X0232774Y0263278D02*
X0251000Y0263278D01*
X0251000Y0260079D02*
X0232212Y0260079D01*
X0233300Y0256881D02*
X0251000Y0256881D01*
X0251000Y0253682D02*
X0232941Y0253682D01*
X0231840Y0250484D02*
X0251000Y0250484D01*
X0251000Y0247285D02*
X0233300Y0247285D01*
X0233109Y0244087D02*
X0251000Y0244087D01*
X0251000Y0240888D02*
X0231435Y0240888D01*
X0233202Y0237690D02*
X0251000Y0237690D01*
X0251000Y0234491D02*
X0233277Y0234491D01*
X0231617Y0231293D02*
X0251000Y0231293D01*
X0251000Y0228094D02*
X0233034Y0228094D01*
X0233300Y0224896D02*
X0251000Y0224896D01*
X0251000Y0221697D02*
X0232021Y0221697D01*
X0226000Y0226000D02*
X0206000Y0226000D01*
X0201000Y0231000D01*
X0186000Y0231000D01*
X0177300Y0239700D01*
X0162600Y0239700D01*
X0153289Y0237690D02*
X0085311Y0237690D01*
X0085029Y0234491D02*
X0153571Y0234491D01*
X0153000Y0231293D02*
X0085600Y0231293D01*
X0085600Y0240888D02*
X0153000Y0240888D01*
X0162600Y0247600D02*
X0179400Y0247600D01*
X0191000Y0236000D01*
X0226000Y0236000D01*
X0226000Y0246000D02*
X0191000Y0246000D01*
X0181500Y0255500D01*
X0162600Y0255500D01*
X0162600Y0263400D02*
X0188600Y0263400D01*
X0196000Y0256000D01*
X0226000Y0256000D01*
X0226000Y0266000D02*
X0201000Y0266000D01*
X0195700Y0271300D01*
X0162600Y0271300D01*
X0162600Y0279200D02*
X0197800Y0279200D01*
X0201000Y0276000D01*
X0226000Y0276000D01*
X0226000Y0286000D02*
X0224900Y0287100D01*
X0162600Y0287100D01*
X0162600Y0295000D02*
X0225000Y0295000D01*
X0226000Y0296000D01*
X0226000Y0306000D02*
X0206000Y0306000D01*
X0202900Y0302900D01*
X0162600Y0302900D01*
X0076000Y0302900D02*
X0059100Y0302900D01*
X0056000Y0306000D01*
X0026000Y0306000D01*
X0020016Y0301660D02*
X0011000Y0301660D01*
X0011000Y0298462D02*
X0019118Y0298462D01*
X0018700Y0295263D02*
X0011000Y0295263D01*
X0011000Y0292065D02*
X0019729Y0292065D01*
X0019286Y0288866D02*
X0011000Y0288866D01*
X0011000Y0285668D02*
X0018700Y0285668D01*
X0019561Y0282469D02*
X0011000Y0282469D01*
X0011000Y0279270D02*
X0019453Y0279270D01*
X0018700Y0276072D02*
X0011000Y0276072D01*
X0011000Y0272873D02*
X0019394Y0272873D01*
X0019621Y0269675D02*
X0011000Y0269675D01*
X0011000Y0266476D02*
X0018700Y0266476D01*
X0019226Y0263278D02*
X0011000Y0263278D01*
X0011000Y0260079D02*
X0019788Y0260079D01*
X0018700Y0256881D02*
X0011000Y0256881D01*
X0011000Y0253682D02*
X0019059Y0253682D01*
X0021192Y0250484D02*
X0011000Y0250484D01*
X0011000Y0247285D02*
X0019825Y0247285D01*
X0019997Y0244087D02*
X0011000Y0244087D01*
X0026000Y0266000D02*
X0051000Y0266000D01*
X0060700Y0271000D01*
X0076000Y0271300D01*
X0076000Y0279200D02*
X0065700Y0279000D01*
X0056000Y0279000D01*
X0051000Y0276000D01*
X0026000Y0276000D01*
X0026000Y0286000D02*
X0074900Y0286000D01*
X0076000Y0287100D01*
X0076000Y0295000D02*
X0075000Y0296000D01*
X0026000Y0296000D01*
X0018700Y0304859D02*
X0011000Y0304859D01*
X0011000Y0308057D02*
X0018951Y0308057D01*
X0020421Y0311256D02*
X0011000Y0311256D01*
X0011000Y0314454D02*
X0018739Y0314454D01*
X0018783Y0317653D02*
X0011000Y0317653D01*
X0011000Y0320851D02*
X0020527Y0320851D01*
X0026000Y0316000D02*
X0056000Y0316000D01*
X0061000Y0311000D01*
X0075800Y0311000D01*
X0076000Y0310800D01*
X0076000Y0311000D01*
X0066400Y0317653D02*
X0061701Y0317653D01*
X0057877Y0320851D02*
X0066747Y0320851D01*
X0011000Y0349638D02*
X0251000Y0349638D01*
X0251000Y0352836D02*
X0011000Y0352836D01*
X0011000Y0356035D02*
X0251000Y0356035D01*
X0251000Y0359233D02*
X0011000Y0359233D01*
X0011000Y0362432D02*
X0251000Y0362432D01*
X0251000Y0365630D02*
X0011000Y0365630D01*
X0011000Y0368829D02*
X0251000Y0368829D01*
X0175155Y0234491D02*
X0171629Y0234491D01*
X0172200Y0231293D02*
X0178353Y0231293D01*
X0181552Y0228094D02*
X0171209Y0228094D01*
X0172200Y0224896D02*
X0199750Y0224896D01*
X0202949Y0221697D02*
X0171831Y0221697D01*
X0169533Y0218499D02*
X0251000Y0218499D01*
X0144087Y0224896D02*
X0142213Y0224896D01*
X0136187Y0224896D02*
X0134313Y0224896D01*
X0128287Y0224896D02*
X0126413Y0224896D01*
X0120387Y0224896D02*
X0118513Y0224896D01*
X0112487Y0224896D02*
X0110613Y0224896D01*
X0104587Y0224896D02*
X0102713Y0224896D01*
X0096687Y0224896D02*
X0094813Y0224896D01*
X0085200Y0215300D02*
X0011000Y0215300D01*
X0011000Y0212102D02*
X0085200Y0212102D01*
X0086563Y0208903D02*
X0011000Y0208903D01*
M02*
