G75*
%MOIN*%
%OFA0B0*%
%FSLAX25Y25*%
%IPPOS*%
%LPD*%
%AMOC8*
5,1,8,0,0,1.08239X$1,22.5*
%
%ADD10C,0.00000*%
%ADD11C,0.00500*%
%ADD12C,0.00800*%
D10*
X0001000Y0001000D02*
X0001000Y0394701D01*
X0630921Y0394701D01*
X0630921Y0001000D01*
X0001000Y0001000D01*
D11*
X0076000Y0216000D02*
X0162600Y0216000D01*
X0162600Y0349000D01*
X0076000Y0349000D01*
X0076000Y0216000D01*
X0018550Y0241701D02*
X0017799Y0240950D01*
X0018550Y0241701D02*
X0018550Y0242451D01*
X0017799Y0243202D01*
X0014046Y0243202D01*
X0014046Y0242451D02*
X0014046Y0243953D01*
X0015547Y0245554D02*
X0014046Y0247055D01*
X0018550Y0247055D01*
X0018550Y0245554D02*
X0018550Y0248556D01*
X0037199Y0312342D02*
X0037950Y0313093D01*
X0037950Y0313843D01*
X0037199Y0314594D01*
X0033446Y0314594D01*
X0033446Y0313843D02*
X0033446Y0315345D01*
X0034197Y0316946D02*
X0033446Y0317697D01*
X0033446Y0319198D01*
X0034197Y0319949D01*
X0034947Y0319949D01*
X0037950Y0316946D01*
X0037950Y0319949D01*
X0233446Y0319198D02*
X0234197Y0319949D01*
X0234947Y0319949D01*
X0235698Y0319198D01*
X0236449Y0319949D01*
X0237199Y0319949D01*
X0237950Y0319198D01*
X0237950Y0317697D01*
X0237199Y0316946D01*
X0235698Y0318447D02*
X0235698Y0319198D01*
X0233446Y0319198D02*
X0233446Y0317697D01*
X0234197Y0316946D01*
X0233446Y0315345D02*
X0233446Y0313843D01*
X0233446Y0314594D02*
X0237199Y0314594D01*
X0237950Y0313843D01*
X0237950Y0313093D01*
X0237199Y0312342D01*
D12*
X0231000Y0313500D02*
X0228500Y0311000D01*
X0231000Y0308500D01*
X0231000Y0303500D01*
X0228500Y0301000D01*
X0231000Y0298500D01*
X0231000Y0293500D01*
X0228500Y0291000D01*
X0231000Y0288500D01*
X0231000Y0283500D01*
X0228500Y0281000D01*
X0231000Y0278500D01*
X0231000Y0273500D01*
X0228500Y0271000D01*
X0231000Y0268500D01*
X0231000Y0263500D01*
X0228500Y0261000D01*
X0231000Y0258500D01*
X0231000Y0253500D01*
X0228500Y0251000D01*
X0231000Y0248500D01*
X0231000Y0243500D01*
X0228500Y0241000D01*
X0231000Y0238500D01*
X0231000Y0233500D01*
X0228500Y0231000D01*
X0231000Y0228500D01*
X0231000Y0223500D01*
X0228500Y0221000D01*
X0223500Y0221000D01*
X0221000Y0223500D01*
X0221000Y0228500D01*
X0223500Y0231000D01*
X0221000Y0233500D01*
X0221000Y0238500D01*
X0223500Y0241000D01*
X0221000Y0243500D01*
X0221000Y0248500D01*
X0223500Y0251000D01*
X0221000Y0253500D01*
X0221000Y0258500D01*
X0223500Y0261000D01*
X0221000Y0263500D01*
X0221000Y0268500D01*
X0223500Y0271000D01*
X0221000Y0273500D01*
X0221000Y0278500D01*
X0223500Y0281000D01*
X0221000Y0283500D01*
X0221000Y0288500D01*
X0223500Y0291000D01*
X0221000Y0293500D01*
X0221000Y0298500D01*
X0223500Y0301000D01*
X0221000Y0303500D01*
X0221000Y0308500D01*
X0223500Y0311000D01*
X0221000Y0313500D01*
X0221000Y0318500D01*
X0223500Y0321000D01*
X0228500Y0321000D01*
X0231000Y0318500D01*
X0231000Y0313500D01*
X0031000Y0313500D02*
X0028500Y0311000D01*
X0031000Y0308500D01*
X0031000Y0303500D01*
X0028500Y0301000D01*
X0031000Y0298500D01*
X0031000Y0293500D01*
X0028500Y0291000D01*
X0031000Y0288500D01*
X0031000Y0283500D01*
X0028500Y0281000D01*
X0031000Y0278500D01*
X0031000Y0273500D01*
X0028500Y0271000D01*
X0031000Y0268500D01*
X0031000Y0263500D01*
X0028500Y0261000D01*
X0023500Y0261000D01*
X0021000Y0258500D01*
X0021000Y0253500D01*
X0023500Y0251000D01*
X0021000Y0248500D01*
X0021000Y0243500D01*
X0023500Y0241000D01*
X0028500Y0241000D01*
X0031000Y0243500D01*
X0031000Y0248500D01*
X0028500Y0251000D01*
X0031000Y0253500D01*
X0031000Y0258500D01*
X0028500Y0261000D01*
X0023500Y0261000D01*
X0021000Y0263500D01*
X0021000Y0268500D01*
X0023500Y0271000D01*
X0021000Y0273500D01*
X0021000Y0278500D01*
X0023500Y0281000D01*
X0021000Y0283500D01*
X0021000Y0288500D01*
X0023500Y0291000D01*
X0021000Y0293500D01*
X0021000Y0298500D01*
X0023500Y0301000D01*
X0021000Y0303500D01*
X0021000Y0308500D01*
X0023500Y0311000D01*
X0021000Y0313500D01*
X0021000Y0318500D01*
X0023500Y0321000D01*
X0028500Y0321000D01*
X0031000Y0318500D01*
X0031000Y0313500D01*
M02*
